<?xml version="1.0" standalone="no"?>
<!DOCTYPE svg PUBLIC "-//W3C//DTD SVG 20010904//EN"
 "http://www.w3.org/TR/2001/REC-SVG-20010904/DTD/svg10.dtd">
<svg version="1.0" xmlns="http://www.w3.org/2000/svg"
 width="512.000000pt" height="512.000000pt" viewBox="0 0 512.000000 512.000000"
 preserveAspectRatio="xMidYMid meet">
<metadata>
Created by potrace 1.14, written by Peter Selinger 2001-2017
</metadata>
<g transform="translate(0.000000,512.000000) scale(0.100000,-0.100000)"
fill="#000000" stroke="none">
<path d="M3498 5095 c-2 -1 -41 -5 -88 -9 -89 -6 -138 -12 -180 -23 -14 -3
-29 -7 -35 -8 -66 -15 -156 -40 -182 -51 -18 -8 -33 -11 -33 -7 0 5 -4 2 -8
-4 -4 -7 -17 -14 -27 -16 -11 -2 -35 -11 -52 -20 -18 -10 -33 -14 -33 -10 0 5
-4 2 -9 -6 -5 -8 -20 -16 -32 -18 -13 -2 -26 -7 -29 -12 -3 -4 -19 -16 -37
-25 -131 -67 -367 -270 -452 -388 -19 -27 -38 -48 -43 -48 -5 0 -6 -4 -3 -10
3 -5 2 -10 -3 -10 -5 0 -15 -13 -22 -30 -7 -16 -16 -30 -20 -30 -13 0 -152
-293 -165 -350 -1 -3 -10 -32 -20 -65 -10 -33 -19 -64 -20 -70 -1 -5 -3 -12
-4 -15 -2 -3 -4 -14 -6 -25 -1 -11 -5 -38 -9 -60 -3 -22 -9 -53 -12 -70 -4
-16 -7 -91 -8 -165 -1 -117 3 -178 18 -265 2 -11 7 -40 11 -65 3 -24 10 -51
15 -60 4 -8 8 -18 9 -23 2 -31 15 -84 24 -94 5 -7 6 -13 2 -13 -4 0 -3 -6 3
-12 6 -7 11 -16 11 -20 3 -16 14 -44 36 -93 l23 -50 -52 -56 c-28 -30 -63 -64
-78 -74 -15 -11 -25 -21 -24 -23 6 -5 -55 -62 -66 -62 -6 0 -9 -2 -7 -5 3 -2
-79 -89 -181 -193 -102 -104 -190 -196 -196 -204 -32 -41 -53 -128 -51 -205 3
-70 1 -80 -20 -101 -13 -13 -23 -27 -23 -32 0 -6 -4 -10 -9 -10 -5 0 -57 -47
-115 -106 l-105 -105 -29 21 c-37 28 -92 35 -146 20 -38 -10 -68 -36 -199
-169 -129 -131 -155 -163 -162 -196 -12 -59 0 -117 31 -155 10 -13 1 -25 -52
-78 -35 -35 -64 -59 -64 -52 0 6 -4 8 -10 5 -5 -3 -10 -2 -10 4 0 9 -22 19
-60 28 -27 7 -76 4 -101 -6 -23 -8 -117 -81 -105 -81 3 0 -18 -21 -46 -47 -28
-27 -58 -64 -66 -83 -19 -43 -26 -110 -12 -110 5 0 9 -3 9 -7 -4 -24 4 -43 26
-67 13 -14 20 -26 16 -26 -9 0 -40 -65 -46 -95 -2 -11 -4 -21 -5 -22 -2 -2 -3
-6 -4 -10 -1 -5 -4 -12 -7 -18 -3 -5 -5 -29 -5 -52 1 -24 -3 -43 -7 -43 -5 0
-5 -5 -1 -12 4 -6 9 -28 10 -47 2 -20 8 -50 15 -66 7 -17 13 -32 14 -35 8 -31
18 -50 27 -50 6 0 9 -3 5 -6 -7 -8 4 -22 67 -84 87 -86 187 -127 306 -124 67
1 190 30 190 45 0 4 10 11 23 15 12 4 33 16 46 28 14 12 472 466 1018 1011
547 545 995 991 997 993 2 1 38 -11 81 -28 127 -50 271 -90 338 -93 9 -1 17
-4 17 -8 0 -4 8 -6 18 -4 9 1 23 -2 30 -8 7 -6 12 -6 12 0 0 6 19 7 48 3 26
-4 59 -7 75 -6 15 1 27 -3 27 -8 0 -7 3 -8 8 -1 8 12 32 13 50 2 6 -5 12 -5
12 0 0 4 24 9 53 9 62 2 167 13 176 18 3 2 22 7 41 10 19 3 46 8 60 11 14 3
35 8 47 11 12 2 35 9 50 15 16 6 29 10 31 10 1 -1 16 6 32 14 17 9 30 13 30
11 0 -6 98 36 174 76 189 97 413 291 524 453 15 22 30 42 35 43 4 2 7 10 7 17
0 7 4 15 8 17 14 6 91 145 136 248 25 58 65 170 61 170 -3 0 0 11 5 24 13 35
38 162 46 231 19 180 9 355 -31 543 -12 54 -14 62 -23 79 -6 10 -11 23 -11 28
-3 27 -16 63 -50 138 -11 26 -21 54 -21 61 0 8 -3 16 -7 18 -8 3 -40 67 -41
81 0 5 -10 17 -21 26 -12 10 -21 26 -21 35 0 9 -4 16 -9 16 -5 0 -13 9 -16 20
-3 11 -12 26 -19 32 -6 7 -30 38 -53 68 -52 69 -161 182 -233 240 -30 25 -56
48 -58 53 -2 4 -10 7 -18 7 -8 0 -17 7 -20 15 -4 8 -11 15 -17 15 -6 0 -18 7
-28 16 -18 16 -78 52 -139 82 -19 9 -38 22 -42 27 -4 6 -8 6 -8 2 0 -4 -10 -2
-22 5 -13 7 -25 13 -28 13 -3 1 -18 7 -35 14 -16 6 -41 15 -55 20 -14 5 -34
12 -45 17 -11 4 -25 8 -31 9 -6 2 -51 13 -100 25 -49 12 -102 23 -119 25 -93
12 -137 16 -197 18 -38 2 -69 3 -70 2z m755 -620 c20 -4 37 -11 37 -16 0 -4
16 -13 34 -20 19 -7 33 -16 30 -21 -3 -4 -1 -8 5 -8 35 0 140 -171 127 -206
-3 -7 -2 -16 3 -18 7 -5 7 -32 -1 -108 -1 -16 -6 -28 -11 -28 -4 0 -6 -4 -3
-9 10 -16 -38 -95 -89 -147 -163 -164 -438 -117 -548 95 -60 113 -47 268 30
358 10 12 25 30 34 40 21 24 62 54 73 53 5 -1 12 2 15 7 24 35 159 49 264 28z"/>
</g>
</svg>
